<mxfile host="app.diagrams.net" modified="2023-12-08T14:53:33.034Z" agent="Mozilla/5.0 (Windows NT 10.0; Win64; x64) AppleWebKit/537.36 (KHTML, like Gecko) Chrome/119.0.0.0 Safari/537.36" etag="ySEwIV2Fi9WhmNy-0tnn" version="22.1.7" type="github">
  <diagram name="Page-1" id="74e2e168-ea6b-b213-b513-2b3c1d86103e">
    <mxGraphModel dx="2774" dy="758" grid="1" gridSize="10" guides="1" tooltips="1" connect="1" arrows="1" fold="1" page="1" pageScale="1" pageWidth="1100" pageHeight="850" background="none" math="0" shadow="0">
      <root>
        <mxCell id="0" />
        <mxCell id="1" parent="0" />
        <mxCell id="oHIPAsq3NtwSI8K_XZwe-1" value="" style="swimlane;html=1;childLayout=stackLayout;startSize=20;rounded=0;shadow=0;labelBackgroundColor=none;strokeWidth=1;fontFamily=Verdana;fontSize=8;align=center;" parent="1" vertex="1">
          <mxGeometry x="-680" y="90" width="550" height="490" as="geometry" />
        </mxCell>
        <mxCell id="oHIPAsq3NtwSI8K_XZwe-2" value="客户服务部" style="swimlane;html=1;startSize=20;" parent="oHIPAsq3NtwSI8K_XZwe-1" vertex="1">
          <mxGeometry y="20" width="330" height="470" as="geometry" />
        </mxCell>
        <mxCell id="oHIPAsq3NtwSI8K_XZwe-13" value="&lt;font style=&quot;font-size: 12px;&quot;&gt;提单放行给客户&lt;/font&gt;" style="rounded=1;whiteSpace=wrap;html=1;shadow=0;labelBackgroundColor=none;strokeWidth=1;fontFamily=Verdana;fontSize=8;align=center;" parent="oHIPAsq3NtwSI8K_XZwe-2" vertex="1">
          <mxGeometry x="51" y="390" width="90" height="55" as="geometry" />
        </mxCell>
        <mxCell id="CdDaqebX61LuyEtHYkY_-5" style="edgeStyle=orthogonalEdgeStyle;rounded=0;orthogonalLoop=1;jettySize=auto;html=1;exitX=0.5;exitY=1;exitDx=0;exitDy=0;entryX=0.5;entryY=0;entryDx=0;entryDy=0;" parent="oHIPAsq3NtwSI8K_XZwe-2" source="oHIPAsq3NtwSI8K_XZwe-4" edge="1">
          <mxGeometry relative="1" as="geometry">
            <mxPoint x="91.625" y="210" as="targetPoint" />
          </mxGeometry>
        </mxCell>
        <mxCell id="CdDaqebX61LuyEtHYkY_-10" style="edgeStyle=orthogonalEdgeStyle;rounded=0;orthogonalLoop=1;jettySize=auto;html=1;exitX=1;exitY=0.5;exitDx=0;exitDy=0;entryX=0;entryY=0.5;entryDx=0;entryDy=0;" parent="oHIPAsq3NtwSI8K_XZwe-2" source="oHIPAsq3NtwSI8K_XZwe-4" target="CdDaqebX61LuyEtHYkY_-7" edge="1">
          <mxGeometry relative="1" as="geometry" />
        </mxCell>
        <mxCell id="oHIPAsq3NtwSI8K_XZwe-4" value="&lt;font style=&quot;font-size: 12px;&quot;&gt;额外费用检查&lt;/font&gt;" style="rounded=1;whiteSpace=wrap;html=1;shadow=0;labelBackgroundColor=none;strokeWidth=1;fontFamily=Verdana;fontSize=8;align=center;" parent="oHIPAsq3NtwSI8K_XZwe-2" vertex="1">
          <mxGeometry x="46.629999999999995" y="130" width="92.5" height="50" as="geometry" />
        </mxCell>
        <mxCell id="CdDaqebX61LuyEtHYkY_-19" style="edgeStyle=orthogonalEdgeStyle;rounded=0;orthogonalLoop=1;jettySize=auto;html=1;exitX=0.5;exitY=1;exitDx=0;exitDy=0;entryX=0.5;entryY=0;entryDx=0;entryDy=0;" parent="oHIPAsq3NtwSI8K_XZwe-2" source="oHIPAsq3NtwSI8K_XZwe-12" edge="1">
          <mxGeometry relative="1" as="geometry">
            <mxPoint x="92.63000000000011" y="392.5" as="targetPoint" />
          </mxGeometry>
        </mxCell>
        <mxCell id="oHIPAsq3NtwSI8K_XZwe-12" value="&lt;font style=&quot;font-size: 12px;&quot;&gt;重要信息审核&lt;/font&gt;" style="rounded=1;whiteSpace=wrap;html=1;shadow=0;labelBackgroundColor=none;strokeWidth=1;fontFamily=Verdana;fontSize=8;align=center;" parent="oHIPAsq3NtwSI8K_XZwe-2" vertex="1">
          <mxGeometry x="47" y="300" width="91.25" height="50" as="geometry" />
        </mxCell>
        <mxCell id="CdDaqebX61LuyEtHYkY_-3" style="edgeStyle=orthogonalEdgeStyle;rounded=0;orthogonalLoop=1;jettySize=auto;html=1;exitX=0.5;exitY=1;exitDx=0;exitDy=0;entryX=0.5;entryY=0;entryDx=0;entryDy=0;" parent="oHIPAsq3NtwSI8K_XZwe-2" source="oHIPAsq3NtwSI8K_XZwe-14" target="oHIPAsq3NtwSI8K_XZwe-4" edge="1">
          <mxGeometry relative="1" as="geometry" />
        </mxCell>
        <mxCell id="oHIPAsq3NtwSI8K_XZwe-14" value="&lt;font style=&quot;font-size: 12px;&quot;&gt;通过区块链检查提单状态和货柜信息检查&lt;/font&gt;" style="rounded=1;whiteSpace=wrap;html=1;shadow=0;labelBackgroundColor=none;strokeWidth=1;fontFamily=Verdana;fontSize=8;align=center;" parent="oHIPAsq3NtwSI8K_XZwe-2" vertex="1">
          <mxGeometry x="48.5" y="50" width="92.5" height="60" as="geometry" />
        </mxCell>
        <mxCell id="CdDaqebX61LuyEtHYkY_-18" style="edgeStyle=orthogonalEdgeStyle;rounded=0;orthogonalLoop=1;jettySize=auto;html=1;exitX=0.5;exitY=1;exitDx=0;exitDy=0;entryX=0.5;entryY=0;entryDx=0;entryDy=0;" parent="oHIPAsq3NtwSI8K_XZwe-2" source="CdDaqebX61LuyEtHYkY_-6" target="oHIPAsq3NtwSI8K_XZwe-12" edge="1">
          <mxGeometry relative="1" as="geometry" />
        </mxCell>
        <mxCell id="CdDaqebX61LuyEtHYkY_-6" value="&lt;font style=&quot;font-size: 12px;&quot;&gt;预付费用检查&lt;/font&gt;" style="rounded=1;whiteSpace=wrap;html=1;shadow=0;labelBackgroundColor=none;strokeWidth=1;fontFamily=Verdana;fontSize=8;align=center;" parent="oHIPAsq3NtwSI8K_XZwe-2" vertex="1">
          <mxGeometry x="46.93000000000001" y="210" width="92.5" height="50" as="geometry" />
        </mxCell>
        <mxCell id="CdDaqebX61LuyEtHYkY_-16" style="edgeStyle=orthogonalEdgeStyle;rounded=0;orthogonalLoop=1;jettySize=auto;html=1;exitX=0.5;exitY=1;exitDx=0;exitDy=0;entryX=1;entryY=0.5;entryDx=0;entryDy=0;" parent="oHIPAsq3NtwSI8K_XZwe-2" source="CdDaqebX61LuyEtHYkY_-7" target="CdDaqebX61LuyEtHYkY_-6" edge="1">
          <mxGeometry relative="1" as="geometry" />
        </mxCell>
        <mxCell id="CdDaqebX61LuyEtHYkY_-17" value="否" style="edgeLabel;html=1;align=center;verticalAlign=middle;resizable=0;points=[];" parent="CdDaqebX61LuyEtHYkY_-16" vertex="1" connectable="0">
          <mxGeometry x="-0.7108" y="6" relative="1" as="geometry">
            <mxPoint as="offset" />
          </mxGeometry>
        </mxCell>
        <mxCell id="CdDaqebX61LuyEtHYkY_-7" value="是否遗漏费用？" style="rhombus;whiteSpace=wrap;html=1;" parent="oHIPAsq3NtwSI8K_XZwe-2" vertex="1">
          <mxGeometry x="181" y="130" width="125" height="50" as="geometry" />
        </mxCell>
        <mxCell id="CdDaqebX61LuyEtHYkY_-11" value="&lt;font style=&quot;font-size: 12px;&quot;&gt;费用处理&lt;/font&gt;" style="rounded=1;whiteSpace=wrap;html=1;shadow=0;labelBackgroundColor=none;strokeWidth=1;fontFamily=Verdana;fontSize=8;align=center;" parent="oHIPAsq3NtwSI8K_XZwe-2" vertex="1">
          <mxGeometry x="444.1300000000001" y="130" width="83.75" height="50" as="geometry" />
        </mxCell>
        <mxCell id="CdDaqebX61LuyEtHYkY_-13" style="edgeStyle=orthogonalEdgeStyle;rounded=0;orthogonalLoop=1;jettySize=auto;html=1;exitX=1;exitY=0.5;exitDx=0;exitDy=0;entryX=0;entryY=0.5;entryDx=0;entryDy=0;" parent="oHIPAsq3NtwSI8K_XZwe-2" source="CdDaqebX61LuyEtHYkY_-7" target="CdDaqebX61LuyEtHYkY_-11" edge="1">
          <mxGeometry relative="1" as="geometry" />
        </mxCell>
        <mxCell id="CdDaqebX61LuyEtHYkY_-14" value="是" style="edgeLabel;html=1;align=center;verticalAlign=middle;resizable=0;points=[];" parent="CdDaqebX61LuyEtHYkY_-13" vertex="1" connectable="0">
          <mxGeometry x="-0.334" y="1" relative="1" as="geometry">
            <mxPoint y="-14" as="offset" />
          </mxGeometry>
        </mxCell>
        <mxCell id="CdDaqebX61LuyEtHYkY_-15" style="edgeStyle=orthogonalEdgeStyle;rounded=0;orthogonalLoop=1;jettySize=auto;html=1;exitX=0.5;exitY=1;exitDx=0;exitDy=0;entryX=1;entryY=0.5;entryDx=0;entryDy=0;" parent="oHIPAsq3NtwSI8K_XZwe-2" source="CdDaqebX61LuyEtHYkY_-11" target="CdDaqebX61LuyEtHYkY_-6" edge="1">
          <mxGeometry relative="1" as="geometry" />
        </mxCell>
        <mxCell id="oHIPAsq3NtwSI8K_XZwe-37" value="财务部" style="swimlane;html=1;startSize=20;" parent="oHIPAsq3NtwSI8K_XZwe-1" vertex="1">
          <mxGeometry x="330" y="20" width="220" height="470" as="geometry" />
        </mxCell>
      </root>
    </mxGraphModel>
  </diagram>
</mxfile>
